<svg width="302" height="200" viewBox="0 0 302 200" fill="none" xmlns="http://www.w3.org/2000/svg">
<path d="M239.195 152.691V64.2147C239.195 39.859 219.403 20.2617 195.188 20.2617H194.832C170.443 20.2617 150.826 40.0335 150.826 64.2147V86.1208C150.826 98.2886 140.926 108.188 128.732 108.188H106.819C82.4296 108.188 62.8121 127.96 62.8121 152.141V152.497C62.8121 176.872 82.6041 196.644 106.819 196.644H195.188C219.577 196.644 239.195 176.872 239.195 152.691Z" fill="#F9EBFF"/>
<path d="M176.537 51.9264C176.02 52.6378 175.416 53.3492 174.785 54.027C174.805 54.027 174.812 54.0337 174.832 54.0472C175.483 53.3492 176.06 52.6378 176.544 51.9331H176.537V51.9264ZM163.128 42.8525L163.349 43.9129C163.671 43.725 163.98 43.5438 164.282 43.3492C163.899 43.1814 163.51 43.0203 163.121 42.8525H163.128ZM113.571 125.396L113.832 126.604L113.94 126.584C113.785 126.202 113.658 125.806 113.571 125.396ZM145.624 118.316L145.671 118.577L152.685 117.087C150.289 117.591 147.933 118 145.624 118.316ZM188.738 93.7921C188.712 93.6445 188.678 93.4834 188.638 93.3022C189.067 96.074 187.732 99.0472 185.007 101.96C183.107 103.987 180.55 105.973 177.45 107.853C179.826 106.577 182.745 104.416 185.034 101.973C187.517 99.3358 189.248 96.3559 188.732 93.7921H188.738ZM192.195 109.953L191.94 108.745C192.02 109.114 192.067 109.497 192.067 109.873C192.047 109.725 192.02 109.598 191.987 109.49C192.007 109.624 192.027 109.792 192.027 109.987C192.067 110.725 191.967 111.866 191.416 113.289C191.886 112.168 192.114 111.061 192.081 109.98H192.087C192.624 112.483 194.094 119.416 195.544 126.249C195.624 126.618 195.698 127 195.779 127.369C196.06 128.671 196.336 129.967 196.597 131.215L196.711 131.188L192.195 109.953ZM188.584 92.9264L188.544 92.7586L188.242 91.376C188.329 91.8123 188.416 92.2217 188.497 92.5841C188.497 92.6042 188.497 92.6109 188.503 92.6244C188.544 92.8592 188.591 93.0606 188.631 93.2552C188.631 93.1478 188.604 93.0338 188.584 92.9264ZM181.913 61.4163C181.92 61.4834 181.933 61.5505 181.933 61.6311L181.758 60.8257C182.651 64.9935 179.463 69.6378 173.51 73.8794C173.752 73.725 173.98 73.5572 174.201 73.3827C174.423 73.2284 174.651 73.0606 174.866 72.8928C175.081 72.7384 175.282 72.5707 175.49 72.4029C175.665 72.2552 175.839 72.1076 176.014 71.9666C176.409 71.6378 176.792 71.3022 177.134 70.9801C177.376 70.7452 177.611 70.5237 177.832 70.2955C178.054 70.0606 178.269 69.8391 178.477 69.6109C178.611 69.4566 178.738 69.3089 178.866 69.1613C179.02 68.9733 179.168 68.7988 179.302 68.6378C179.436 68.4633 179.564 68.2888 179.691 68.1143C180.04 67.6445 180.336 67.1881 180.584 66.7519C180.611 66.7049 180.631 66.6512 180.665 66.6176C180.671 66.5908 180.691 66.5505 180.711 66.517C180.859 66.2552 180.993 65.9935 181.101 65.7384C181.141 65.6579 181.168 65.5841 181.195 65.517C181.282 65.3223 181.349 65.1344 181.416 64.9532C181.443 64.8727 181.477 64.8056 181.497 64.7317C181.517 64.6915 181.524 64.6646 181.537 64.6244C181.544 64.6176 181.544 64.6042 181.544 64.5975C181.651 64.2754 181.732 63.9733 181.785 63.6848C181.812 63.5572 181.832 63.4297 181.852 63.3022C181.879 63.1478 181.899 63.0002 181.913 62.866C181.96 62.4096 181.96 62.0203 181.933 61.7049L185.289 77.4767C185.289 77.4767 185.295 77.5035 185.295 77.517L185.47 78.3089C183.913 70.9264 182.316 63.3895 181.899 61.4163H181.913ZM181.826 60.9666C181.826 61.0136 181.846 61.1009 181.873 61.2217C181.852 61.1076 181.832 61.0203 181.826 60.9666ZM170.188 75.9801V76.0069C170.517 75.8123 170.832 75.6176 171.141 75.423C170.832 75.6109 170.517 75.7921 170.188 75.9801ZM149.423 72.2217C149.785 71.8794 150.067 71.4901 150.181 71.0807C150.054 71.4633 149.792 71.8391 149.423 72.2217ZM147.389 73.5841C147.389 73.5841 147.369 73.5908 147.363 73.6042C147.255 73.6512 147.161 73.6915 147.06 73.7384C146.993 73.7787 146.933 73.8056 146.873 73.8257C146.785 73.866 146.705 73.9062 146.631 73.9398C146.765 73.8928 146.893 73.8324 147.014 73.772C147.141 73.725 147.269 73.6646 147.383 73.5975C147.463 73.5572 147.53 73.517 147.604 73.4834C147.624 73.4633 147.651 73.4566 147.671 73.4364C147.577 73.4834 147.483 73.5371 147.389 73.5841ZM144.604 68.7183V68.6982L144.926 68.6109C144.47 68.725 144 68.8324 143.537 68.9398C143.228 69.0069 142.906 69.074 142.584 69.1411C140.168 69.6579 137.785 70.074 135.45 70.3895L135.497 70.6512L136.074 73.3291C136.423 74.9868 139.879 75.6646 143.792 74.8391C144.503 74.6915 145.175 74.4968 145.799 74.2754L144.611 68.7183H144.604ZM148.705 140.363C148.705 140.363 148.725 140.463 148.745 140.557C148.738 140.457 148.718 140.389 148.705 140.363ZM145.134 68.564C146.665 68.2015 148.161 67.8056 149.611 67.3827L145.134 68.564Z" fill="black" stroke="black" stroke-miterlimit="10"/>
<path d="M176.537 51.9256C176.02 52.6371 175.416 53.3485 174.785 54.0263C174.805 54.0263 174.812 54.033 174.832 54.0464C175.483 53.3485 176.06 52.637 176.544 51.9323C176.698 51.7176 176.846 51.4961 176.973 51.2813C176.839 51.4961 176.691 51.7109 176.537 51.9256ZM178.456 45.3753C178.456 45.3753 178.463 45.3552 178.45 45.3552L178.423 45.3283C178.45 45.4827 178.483 45.637 178.51 45.7646C178.503 45.637 178.49 45.5028 178.463 45.3753H178.456ZM178.517 45.8048C178.671 47.4491 178.215 49.1672 177.228 50.8787C178.289 49.1471 178.832 47.3954 178.517 45.8048ZM163.134 42.8652L163.356 43.9256C163.678 43.7377 163.987 43.5565 164.289 43.3619C163.906 43.1941 163.517 43.033 163.128 42.8652H163.134ZM113.577 125.409L113.839 126.617L113.946 126.597C113.792 126.214 113.665 125.818 113.577 125.409ZM145.631 118.328L145.678 118.59L152.691 117.1C150.295 117.604 147.94 118.013 145.631 118.328ZM188.745 93.8048C188.718 93.6572 188.685 93.4961 188.644 93.3149C189.074 96.0867 187.738 99.0599 185.014 101.973C183.114 103.999 180.557 105.986 177.456 107.865C179.832 106.59 182.752 104.429 185.04 101.986C187.524 99.3485 189.255 96.3686 188.738 93.8048H188.745ZM192.201 109.966L191.946 108.758C192.027 109.127 192.074 109.51 192.074 109.885C192.054 109.738 192.027 109.61 191.993 109.503C192.014 109.637 192.034 109.805 192.034 109.999C192.074 110.738 191.973 111.879 191.423 113.301C191.893 112.181 192.121 111.073 192.087 109.993H192.094C192.631 112.496 194.101 119.429 195.55 126.261C195.631 126.63 195.705 127.013 195.785 127.382C196.067 128.684 196.342 129.979 196.604 131.228L196.718 131.201L192.201 109.966ZM188.591 92.9391L188.55 92.7713L188.248 91.3887C188.336 91.825 188.423 92.2344 188.503 92.5968C188.503 92.6169 188.503 92.6236 188.51 92.6371C188.55 92.872 188.597 93.0733 188.638 93.2679C188.638 93.1605 188.611 93.0464 188.591 92.9391ZM181.92 61.429C181.926 61.4961 181.94 61.5632 181.94 61.6438L181.765 60.8384C182.658 65.0062 179.47 69.6505 173.517 73.8921C173.758 73.7377 173.987 73.5699 174.208 73.3954C174.43 73.2411 174.658 73.0733 174.873 72.9055C175.087 72.7511 175.289 72.5834 175.497 72.4156C175.671 72.2679 175.846 72.1203 176.02 71.9793C176.416 71.6505 176.799 71.3149 177.141 70.9928C177.383 70.7579 177.618 70.5364 177.839 70.3082C178.06 70.0733 178.275 69.8518 178.483 69.6236C178.618 69.4693 178.745 69.3216 178.873 69.174C179.027 68.986 179.175 68.8115 179.309 68.6505C179.443 68.476 179.571 68.3015 179.698 68.127C180.047 67.6572 180.342 67.2008 180.591 66.7646C180.618 66.7176 180.638 66.6639 180.671 66.6303C180.678 66.6035 180.698 66.5632 180.718 66.5297C180.866 66.2679 181 66.0062 181.107 65.7511C181.148 65.6706 181.175 65.5968 181.201 65.5297C181.289 65.335 181.356 65.1471 181.423 64.9659C181.45 64.8854 181.483 64.8183 181.503 64.7444C181.524 64.7042 181.53 64.6773 181.544 64.637C181.55 64.6303 181.55 64.6169 181.55 64.6102C181.658 64.2881 181.738 63.986 181.792 63.6975C181.819 63.5699 181.839 63.4424 181.859 63.3149C181.886 63.1605 181.906 63.0129 181.92 62.8787C181.967 62.4223 181.967 62.033 181.94 61.7176L185.295 77.4894C185.295 77.4894 185.302 77.5162 185.302 77.5297L185.477 78.3216C183.92 70.9391 182.322 63.4021 181.906 61.429H181.92ZM181.832 60.9793C181.832 61.0263 181.852 61.1136 181.879 61.2344C181.859 61.1203 181.839 61.033 181.832 60.9793ZM170.195 75.9928V76.0196C170.524 75.825 170.839 75.6303 171.148 75.4357C170.839 75.6236 170.524 75.8048 170.195 75.9928ZM149.43 72.2344C149.792 71.8921 150.074 71.5028 150.188 71.0934C150.06 71.476 149.799 71.8518 149.43 72.2344ZM147.396 73.5968C147.396 73.5968 147.376 73.6035 147.369 73.6169C147.262 73.6639 147.168 73.7042 147.067 73.7511C147 73.7914 146.94 73.8183 146.879 73.8384C146.792 73.8787 146.711 73.9189 146.638 73.9525C146.772 73.9055 146.899 73.8451 147.02 73.7847C147.148 73.7377 147.275 73.6773 147.389 73.6102C147.47 73.5699 147.537 73.5297 147.611 73.4961C147.631 73.476 147.658 73.4693 147.678 73.4491C147.584 73.4961 147.49 73.5498 147.396 73.5968ZM144.611 68.731V68.7109L144.933 68.6236C144.477 68.7377 144.007 68.8451 143.544 68.9525C143.235 69.0196 142.913 69.0867 142.591 69.1538C140.175 69.6706 137.792 70.0867 135.456 70.4022L135.503 70.6639L136.081 73.3417C136.43 74.9995 139.886 75.6773 143.799 74.8518C144.51 74.7042 145.181 74.5095 145.805 74.2881L144.618 68.731H144.611ZM145.134 68.5766C146.665 68.2142 148.161 67.8183 149.611 67.3954L145.134 68.5766Z" fill="white" stroke="black" stroke-miterlimit="10"/>
<path d="M189.175 63.6579C188.503 63.6579 187.832 63.6847 187.168 63.7183C185.879 56.8055 182.819 50.5371 178.456 45.376C178.483 45.5035 178.497 45.6377 178.503 45.7652C178.503 45.772 178.51 45.7921 178.51 45.8055C178.832 47.3894 178.289 49.1478 177.222 50.8793C177.141 51.0136 177.054 51.1545 176.967 51.2887C176.839 51.5035 176.691 51.725 176.537 51.9397C176.047 52.6377 175.477 53.3491 174.826 54.0538C178.651 55.6713 181.134 57.9599 181.745 60.8391L181.92 61.6444C181.92 61.5639 181.913 61.4968 181.899 61.4297C182.315 63.4095 183.913 70.9397 185.47 78.3223L185.772 79.7518C186.121 81.4162 186.47 83.0538 186.792 84.5907C186.94 85.2552 187.074 85.9062 187.201 86.5303C187.55 88.1881 187.866 89.6847 188.128 90.933C188.154 91.0874 188.188 91.2417 188.228 91.3894L188.53 92.7719L188.571 92.9397C188.591 93.0471 188.617 93.1612 188.617 93.2686C188.617 93.2753 188.618 93.2954 188.624 93.3156C188.664 93.4901 188.691 93.6579 188.725 93.8055C189.242 96.3693 187.51 99.3424 185.027 101.987C188.846 103.604 191.315 105.893 191.933 108.765L192.188 109.973L196.705 131.208C210.577 128.094 221.262 116.537 223.081 102.215V102.175C223.269 100.765 223.356 99.3223 223.356 97.8592C223.356 78.9733 208.047 63.6646 189.168 63.6646L189.175 63.6579ZM181.826 60.98C181.832 61.027 181.852 61.1142 181.873 61.235C181.846 61.1209 181.826 61.0337 181.826 60.98Z" fill="white" stroke="black" stroke-miterlimit="10"/>
<path d="M103.396 77.4834L106.852 93.7518C106.168 93.8793 105.477 94.0136 104.785 94.1612C86.7853 97.9867 73.4363 106.987 74.9799 114.255L77.7719 127.416L78.7249 131.846C71.1611 130.772 65.0537 125.128 63.3088 117.799C62.9665 116.416 62.792 114.973 62.792 113.483C62.792 104.114 69.7249 96.3894 78.7383 95.1209C79.839 81.1813 89.3021 69.5907 102.114 65.376C103.302 66.584 104.94 67.6176 106.946 68.4498C105.349 70.1545 104.228 71.8793 103.664 73.5706C103.215 74.9062 103.107 76.2082 103.383 77.4766L103.396 77.4834Z" fill="white" stroke="black" stroke-miterlimit="10"/>
<path d="M210.973 36.3421C210.51 37.2079 210.262 38.1072 210.235 39.0334C210.208 39.9596 210.524 42.0065 211.195 45.1609C211.805 48.0267 211.94 50.1609 211.611 51.577C211.282 52.9864 210.503 54.1206 209.275 54.973C208.047 55.8253 206.201 56.5099 203.725 57.0401L202.517 57.2951L201.336 51.7247C203.221 51.322 204.396 50.8992 204.852 50.4562C205.309 50.0132 205.537 49.4495 205.537 48.7716L204.45 41.9461C204.094 39.7381 204.107 37.9931 204.49 36.6978C204.873 35.4025 205.658 34.1945 206.859 33.0669C205.208 32.4495 204.007 31.6844 203.255 30.7851C202.503 29.8857 201.94 28.8924 201.557 27.8119C201.175 26.7314 200.544 24.3421 199.658 20.6441C199.342 19.3018 198.913 18.4495 198.376 18.0804C197.839 17.7112 196.443 17.7649 194.201 18.2414L193.02 12.6911L194.248 12.4294C196.403 11.973 198.101 11.8052 199.362 11.9394C200.617 12.0669 201.711 12.483 202.631 13.1743C203.557 13.8656 204.248 14.8253 204.711 16.0468C205.175 17.2683 205.685 19.1877 206.235 21.7985C206.966 25.2347 207.859 27.3488 208.919 28.1542C209.98 28.9596 211.356 29.1877 213.047 28.8455L214.228 34.4159C212.523 34.8455 211.443 35.4898 210.98 36.3555L210.973 36.3421Z" fill="white" stroke="black" stroke-linecap="round" stroke-linejoin="round"/>
<path d="M200.94 51.4635L201.269 51.3964C203.53 50.9132 204.342 50.4904 204.618 50.2152C205.007 49.8327 205.201 49.3562 205.201 48.7656L204.121 41.9937C203.758 39.7521 203.772 37.9333 204.168 36.5978C204.524 35.3897 205.222 34.2488 206.255 33.1817C204.799 32.5776 203.705 31.8461 203 30.9937C202.228 30.0676 201.638 29.034 201.242 27.9132C200.852 26.8192 200.215 24.3964 199.336 20.7119C198.967 19.1548 198.51 18.5642 198.188 18.3427C198.067 18.2622 197.792 18.1615 197.181 18.1615C196.483 18.1615 195.51 18.2957 194.275 18.5575L193.946 18.6246L192.631 12.4233L194.188 12.0944C195.879 11.732 197.322 11.5508 198.47 11.5508C198.799 11.5508 199.114 11.5642 199.403 11.5978C200.718 11.732 201.873 12.1682 202.839 12.8931C203.812 13.6246 204.55 14.638 205.027 15.9132C205.49 17.1414 206.007 19.0944 206.564 21.7119C207.275 25.0474 208.134 27.1213 209.121 27.8662C209.799 28.383 210.638 28.638 211.611 28.638C212.034 28.638 212.497 28.5911 212.98 28.4904L213.309 28.4233L214.631 34.638L214.316 34.7186C212.718 35.1213 211.691 35.7186 211.282 36.4904C210.846 37.3092 210.611 38.1615 210.584 39.034C210.557 39.9333 210.879 41.9669 211.537 45.081C212.161 48.0206 212.295 50.1615 211.953 51.638C211.604 53.128 210.772 54.336 209.483 55.2353C208.228 56.1078 206.316 56.8192 203.805 57.3562L202.269 57.685L200.946 51.4568L200.94 51.4635Z" fill="#FFC010"/>
<path d="M198.463 11.8861C198.785 11.8861 199.081 11.8995 199.363 11.9264C200.618 12.0539 201.711 12.47 202.631 13.1613C203.557 13.8526 204.248 14.8123 204.711 16.0338C205.175 17.2552 205.685 19.1747 206.235 21.7854C206.967 25.2217 207.859 27.3358 208.92 28.1411C209.665 28.7049 210.557 28.9868 211.611 28.9868C212.06 28.9868 212.537 28.9331 213.047 28.8324L214.228 34.4029C212.524 34.8324 211.443 35.4767 210.98 36.3425C210.517 37.2083 210.269 38.1076 210.242 39.0338C210.215 39.9599 210.53 42.0069 211.201 45.1613C211.812 48.0271 211.946 50.1613 211.618 51.5774C211.289 52.9868 210.51 54.121 209.282 54.9734C208.054 55.8257 206.208 56.5103 203.732 57.0405L202.524 57.2955L201.342 51.725C203.228 51.3224 204.403 50.8995 204.859 50.4566C205.316 50.0136 205.544 49.4499 205.544 48.772L204.456 41.9465C204.101 39.7385 204.114 37.9935 204.497 36.6982C204.879 35.4029 205.665 34.1948 206.866 33.0673C205.215 32.4499 204.014 31.6915 203.262 30.7854C202.51 29.8861 201.946 28.8928 201.564 27.8123C201.181 26.7317 200.55 24.3425 199.665 20.6445C199.349 19.3022 198.92 18.4499 198.383 18.0807C198.148 17.9197 197.745 17.8391 197.188 17.8391C196.463 17.8391 195.47 17.9734 194.208 18.2418L193.027 12.6915L194.255 12.4297C195.933 12.074 197.336 11.8928 198.47 11.8928M198.47 11.2217C197.295 11.2217 195.832 11.4096 194.114 11.772L192.886 12.0338L192.228 12.1747L192.369 12.8324L193.55 18.3828L193.691 19.0405L194.349 18.8995C195.557 18.6445 196.517 18.5103 197.188 18.5103C197.805 18.5103 197.987 18.6244 198.007 18.6378C198.228 18.7922 198.658 19.2754 199.02 20.8056C199.913 24.5573 200.544 26.9264 200.94 28.0405C201.349 29.1948 201.96 30.2619 202.758 31.2217C203.423 32.0271 204.416 32.725 205.705 33.3156C204.812 34.3156 204.195 35.3895 203.866 36.517C203.456 37.9197 203.436 39.7317 203.812 42.0606L204.893 48.8324C204.879 49.3022 204.725 49.6848 204.409 49.9868C204.248 50.1479 203.611 50.5707 201.222 51.0807L200.564 51.2217L200.705 51.8794L201.886 57.4499L202.027 58.1076L202.685 57.9666L203.893 57.7116C206.483 57.1613 208.376 56.4499 209.691 55.5438C211.054 54.5975 211.933 53.3224 212.295 51.7519C212.651 50.2284 212.517 48.0338 211.879 45.0472C211.06 41.2015 210.913 39.6781 210.933 39.0807C210.96 38.262 211.181 37.4566 211.591 36.6848C211.96 35.9935 212.906 35.4566 214.409 35.0807L215.04 34.9264L214.906 34.2955L213.725 28.725L213.584 28.074L212.933 28.2083C212.47 28.3022 212.034 28.3492 211.631 28.3492C210.718 28.3492 209.973 28.121 209.342 27.6445C208.705 27.1613 207.772 25.7385 206.906 21.6848C206.336 19.0136 205.832 17.0942 205.349 15.8324C204.846 14.4968 204.067 13.4297 203.047 12.6646C202.027 11.8995 200.819 11.4432 199.443 11.3022C199.148 11.2687 198.819 11.2552 198.477 11.2552L198.47 11.2217Z" fill="black"/>
<path d="M200.94 51.4635L201.269 51.3964C203.53 50.9132 204.342 50.4904 204.618 50.2152C205.007 49.8327 205.201 49.3562 205.201 48.7656L204.121 41.9937C203.758 39.7521 203.772 37.9333 204.168 36.5978C204.524 35.3897 205.222 34.2488 206.255 33.1817C204.799 32.5776 203.705 31.8461 203 30.9937C202.228 30.0676 201.638 29.034 201.242 27.9132C200.852 26.8192 200.215 24.3964 199.336 20.7119C198.967 19.1548 198.51 18.5642 198.188 18.3427C198.067 18.2622 197.792 18.1615 197.181 18.1615C196.483 18.1615 195.51 18.2957 194.275 18.5575L193.946 18.6246L192.631 12.4233L194.188 12.0944C195.879 11.732 197.322 11.5508 198.47 11.5508C198.799 11.5508 199.114 11.5642 199.403 11.5978C200.718 11.732 201.873 12.1682 202.839 12.8931C203.812 13.6246 204.55 14.638 205.027 15.9132C205.49 17.1414 206.007 19.0944 206.564 21.7119C207.275 25.0474 208.134 27.1213 209.121 27.8662C209.799 28.383 210.638 28.638 211.611 28.638C212.034 28.638 212.497 28.5911 212.98 28.4904L213.309 28.4233L214.631 34.638L214.316 34.7186C212.718 35.1213 211.691 35.7186 211.282 36.4904C210.846 37.3092 210.611 38.1615 210.584 39.034C210.557 39.9333 210.879 41.9669 211.537 45.081C212.161 48.0206 212.295 50.1615 211.953 51.638C211.604 53.128 210.772 54.336 209.483 55.2353C208.228 56.1078 206.316 56.8192 203.805 57.3562L202.269 57.685L200.946 51.4568L200.94 51.4635Z" fill="#FFC010"/>
<path d="M198.463 11.8861C198.785 11.8861 199.081 11.8995 199.363 11.9264C200.618 12.0539 201.711 12.47 202.631 13.1613C203.557 13.8526 204.248 14.8123 204.711 16.0338C205.175 17.2552 205.685 19.1747 206.235 21.7854C206.967 25.2217 207.859 27.3358 208.92 28.1411C209.665 28.7049 210.557 28.9868 211.611 28.9868C212.06 28.9868 212.537 28.9331 213.047 28.8324L214.228 34.4029C212.524 34.8324 211.443 35.4767 210.98 36.3425C210.517 37.2083 210.269 38.1076 210.242 39.0338C210.215 39.9599 210.53 42.0069 211.201 45.1613C211.812 48.0271 211.946 50.1613 211.618 51.5774C211.289 52.9868 210.51 54.121 209.282 54.9734C208.054 55.8257 206.208 56.5103 203.732 57.0405L202.524 57.2955L201.342 51.725C203.228 51.3224 204.403 50.8995 204.859 50.4566C205.316 50.0136 205.544 49.4499 205.544 48.772L204.456 41.9465C204.101 39.7385 204.114 37.9935 204.497 36.6982C204.879 35.4029 205.665 34.1948 206.866 33.0673C205.215 32.4499 204.014 31.6915 203.262 30.7854C202.51 29.8861 201.946 28.8928 201.564 27.8123C201.181 26.7317 200.55 24.3425 199.665 20.6445C199.349 19.3022 198.92 18.4499 198.383 18.0807C198.148 17.9197 197.745 17.8391 197.188 17.8391C196.463 17.8391 195.47 17.9734 194.208 18.2418L193.027 12.6915L194.255 12.4297C195.933 12.074 197.336 11.8928 198.47 11.8928M198.47 11.2217C197.295 11.2217 195.832 11.4096 194.114 11.772L192.886 12.0338L192.228 12.1747L192.369 12.8324L193.55 18.3828L193.691 19.0405L194.349 18.8995C195.557 18.6445 196.517 18.5103 197.188 18.5103C197.805 18.5103 197.987 18.6244 198.007 18.6378C198.228 18.7922 198.658 19.2754 199.02 20.8056C199.913 24.5573 200.544 26.9264 200.94 28.0405C201.349 29.1948 201.96 30.2619 202.758 31.2217C203.423 32.0271 204.416 32.725 205.705 33.3156C204.812 34.3156 204.195 35.3895 203.866 36.517C203.456 37.9197 203.436 39.7317 203.812 42.0606L204.893 48.8324C204.879 49.3022 204.725 49.6848 204.409 49.9868C204.248 50.1479 203.611 50.5707 201.222 51.0807L200.564 51.2217L200.705 51.8794L201.886 57.4499L202.027 58.1076L202.685 57.9666L203.893 57.7116C206.483 57.1613 208.376 56.4499 209.691 55.5438C211.054 54.5975 211.933 53.3224 212.295 51.7519C212.651 50.2284 212.517 48.0338 211.879 45.0472C211.06 41.2015 210.913 39.6781 210.933 39.0807C210.96 38.262 211.181 37.4566 211.591 36.6848C211.96 35.9935 212.906 35.4566 214.409 35.0807L215.04 34.9264L214.906 34.2955L213.725 28.725L213.584 28.074L212.933 28.2083C212.47 28.3022 212.034 28.3492 211.631 28.3492C210.718 28.3492 209.973 28.121 209.342 27.6445C208.705 27.1613 207.772 25.7385 206.906 21.6848C206.336 19.0136 205.832 17.0942 205.349 15.8324C204.846 14.4968 204.067 13.4297 203.047 12.6646C202.027 11.8995 200.819 11.4432 199.443 11.3022C199.148 11.2687 198.819 11.2552 198.477 11.2552L198.47 11.2217Z" fill="black"/>
<path d="M206.577 33.3351C205.537 34.3821 204.839 35.5029 204.49 36.6908C204.107 37.9861 204.101 39.7311 204.45 41.9392L205.537 48.7647C205.537 49.4425 205.309 50.0063 204.852 50.4492C204.396 50.8922 203.228 51.315 201.336 51.7177L202.517 57.2882L203.725 57.0331C206.201 56.5096 208.054 55.8184 209.275 54.966C210.503 54.1137 211.282 52.9861 211.611 51.57C211.94 50.1539 211.805 48.0197 211.195 45.1539C210.523 41.9996 210.201 39.9526 210.235 39.0264C210.262 38.1002 210.51 37.2009 210.973 36.3351C211.436 35.4694 212.517 34.8251 214.221 34.3955L213.671 31.8184L206.57 33.3284L206.577 33.3351Z" fill="black" stroke="black" stroke-miterlimit="10"/>
<path d="M148.738 140.564C148.718 140.463 148.698 140.396 148.698 140.369C148.705 140.396 148.725 140.47 148.738 140.564Z" fill="#001F2C"/>
<path d="M115.06 132.389L116.826 140.704H97.6376C97.5101 139.912 97.3625 139.026 97.2014 138.067C96.9665 136.711 97.0135 135.758 97.3692 135.201C97.7182 134.644 99.0269 134.147 101.275 133.704L101.081 132.731L100.946 132.04L100.175 128.147L98.9396 128.389C96.7853 128.805 95.1544 129.335 94.0537 129.946C93.0672 130.489 92.3021 131.194 91.7383 132.04C91.6712 132.147 91.6041 132.254 91.537 132.369C91.4229 132.57 91.3155 132.785 91.2282 133.013C90.8658 133.852 90.7115 134.791 90.7584 135.825C90.8054 136.952 91.0336 138.583 91.4296 140.704H81.3692C71.1276 140.704 62.8188 132.402 62.8188 122.154C62.8188 120.657 62.9933 119.194 63.3356 117.805C65.0806 125.134 71.1813 130.785 78.7517 131.852L77.7987 127.422L75.0068 114.261C73.4564 106.986 86.8054 97.9927 104.812 94.1672C105.503 94.0196 106.195 93.8853 106.879 93.7578L106.96 94.1471C106.96 94.1471 106.967 94.1873 106.98 94.2075L110.242 109.59C110.852 112.469 113.336 114.771 117.175 116.389C114.329 119.429 112.987 122.53 113.604 125.416L113.866 126.624L115.013 132.046L115.094 132.395L115.06 132.389Z" fill="black"/>
<path d="M113.946 126.597L113.839 126.617L113.577 125.409C113.665 125.819 113.792 126.215 113.946 126.597Z" fill="black"/>
<path d="M196.711 131.202L196.597 131.228C196.336 129.98 196.06 128.685 195.779 127.383C195.698 127.014 195.624 126.631 195.544 126.262C194.094 119.43 192.624 112.497 192.087 109.98L192.195 109.96L195.651 126.242L196.711 131.195V131.202Z" fill="black" stroke="black" stroke-miterlimit="10"/>
<path d="M148.738 140.564C148.718 140.463 148.698 140.396 148.698 140.369C148.705 140.396 148.725 140.47 148.738 140.564Z" fill="black" stroke="black" stroke-miterlimit="10"/>
<path d="M186.128 151.624C179.839 155.316 171.443 158.517 161.993 160.524C140.349 165.121 121.302 161.759 119.443 153.027L117.289 142.893C119.148 151.624 138.195 154.987 159.825 150.39C169.289 148.383 177.685 145.182 183.973 141.49L186.128 151.624Z" fill="black" stroke="black" stroke-miterlimit="10"/>
<path d="M192.081 109.993C192.121 111.074 191.886 112.181 191.416 113.302C191.973 111.879 192.067 110.738 192.027 110H192.074L192.081 109.993Z" fill="black" stroke="black" stroke-miterlimit="10"/>
<path d="M148.738 140.564C148.718 140.463 148.698 140.396 148.698 140.369C148.705 140.396 148.725 140.47 148.738 140.564Z" fill="#00F14C" stroke="black" stroke-miterlimit="10"/>
<path d="M186.128 151.624C179.839 155.316 171.443 158.517 161.993 160.524C140.349 165.121 121.302 161.759 119.443 153.027L117.289 142.893C119.148 151.624 138.195 154.987 159.825 150.39C169.289 148.383 177.685 145.182 183.973 141.49L186.128 151.624Z" fill="#00F14C" stroke="black" stroke-miterlimit="10"/>
<path d="M191.195 113.832C187.852 120.792 175.658 128.047 159.859 132.04C158.631 132.349 157.389 132.637 156.121 132.906C141.718 135.966 128.477 135.516 120.678 132.282C120.483 132.201 120.295 132.114 120.114 132.04C117.027 130.664 114.873 128.839 113.953 126.597H113.946L113.839 126.617L114.987 132.04L115.067 132.389L116.832 140.704L117.302 142.892C119.161 151.624 138.208 154.986 159.839 150.389C169.302 148.382 177.698 145.181 183.987 141.49L183.819 140.698L181.98 132.033L181.389 129.268L180.289 124.067C187.027 120.194 189.966 116.55 191.201 113.825L191.195 113.832Z" fill="#00F14C" stroke="black" stroke-miterlimit="10"/>
<path d="M113.946 126.597L113.839 126.617L113.577 125.409C113.664 125.819 113.792 126.215 113.946 126.597Z" fill="#00F14C" stroke="black" stroke-miterlimit="10"/>
<path d="M196.711 131.201L196.597 131.228C196.336 129.979 196.06 128.684 195.779 127.382C195.698 127.013 195.624 126.63 195.544 126.261C194.094 119.429 192.624 112.496 192.087 109.979H192.081C192.121 111.067 191.886 112.181 191.416 113.301C191.973 111.879 192.067 110.738 192.027 109.999C192.027 109.805 192.007 109.637 191.987 109.503C192.013 109.61 192.047 109.738 192.067 109.885C192.067 109.503 192.02 109.127 191.94 108.758L192.195 109.966L196.711 131.201Z" fill="#00F14C" stroke="black" stroke-miterlimit="10"/>
<path d="M145.624 118.328L145.671 118.59L152.685 117.1C150.289 117.604 147.933 118.013 145.624 118.328ZM185.007 101.973C183.107 104 180.55 105.986 177.45 107.865C179.825 106.59 182.745 104.429 185.034 101.986C185.027 101.979 185.013 101.979 185.007 101.979V101.973ZM192.074 109.939V109.919C192.074 109.919 192.074 109.899 192.067 109.892C192.047 109.744 192.02 109.617 191.987 109.51C192.007 109.644 192.027 109.812 192.027 110.006C192.067 110.744 191.966 111.885 191.416 113.308C191.886 112.187 192.114 111.08 192.081 109.999H192.087C192.087 109.999 192.087 109.953 192.081 109.939H192.074Z" fill="white" stroke="#001F2C" stroke-miterlimit="10"/>
<path d="M191.993 109.51C192.013 109.644 192.034 109.812 192.034 110.007C192.074 110.745 191.973 111.886 191.423 113.309C191.376 113.436 191.315 113.564 191.255 113.691C191.235 113.738 191.215 113.785 191.195 113.839C187.852 120.799 175.658 128.054 159.859 132.047C158.631 132.356 157.389 132.644 156.121 132.913C141.718 135.973 128.476 135.523 120.678 132.288C120.483 132.208 120.295 132.121 120.114 132.047C117.027 130.671 114.872 128.846 113.953 126.604H113.946C113.792 126.221 113.664 125.825 113.577 125.416C112.966 122.537 114.309 119.429 117.148 116.389C123.329 119.007 133.027 119.852 144.04 118.53C144.564 118.483 145.094 118.416 145.624 118.335L145.671 118.597L145.933 119.805L146.295 121.51C146.644 123.174 150.101 123.846 154.013 123.02C157.926 122.195 160.812 120.168 160.456 118.503L160.43 118.389C160.295 117.738 160.174 117.208 160.101 116.805C160.034 116.503 159.987 116.268 159.946 116.074L159.886 115.792C159.859 115.705 159.846 115.637 159.839 115.59C159.819 115.503 159.812 115.463 159.812 115.463L159.792 115.335C166.591 113.356 172.584 110.785 177.349 107.933C177.389 107.913 177.43 107.892 177.456 107.872C179.832 106.597 182.752 104.436 185.04 101.993C188.859 103.611 191.329 105.899 191.946 108.772C192.027 109.141 192.074 109.523 192.074 109.899C192.054 109.752 192.027 109.624 191.993 109.517V109.51Z" fill="white" stroke="#001F2C" stroke-miterlimit="10"/>
<path d="M188.631 93.2686C188.591 93.0739 188.544 92.8726 188.503 92.6377C188.524 92.678 188.53 92.7249 188.544 92.7719L188.584 92.9397C188.604 93.0471 188.631 93.1612 188.631 93.2686Z" fill="#96FF00" stroke="#001F2C" stroke-miterlimit="10"/>
<path d="M154.02 123.013C150.107 123.839 146.651 123.167 146.302 121.503L145.94 119.798L145.678 118.59L152.691 117.1C152.691 117.1 152.738 117.094 152.772 117.08C153.094 117.013 153.416 116.946 153.725 116.879L156.966 116.194L154.826 116.758L155.06 117.859L156.013 122.335C156.013 122.335 160.933 120.644 160.443 118.376L160.47 118.49C160.819 120.154 157.94 122.181 154.027 123.006L154.02 123.013Z" fill="#96FF00" stroke="#001F2C" stroke-miterlimit="10"/>
<path d="M152.685 117.101L145.671 118.591L145.624 118.329C147.933 118.02 150.289 117.611 152.685 117.101Z" fill="#96FF00" stroke="#001F2C" stroke-miterlimit="10"/>
<path d="M173.738 92.6707C168.799 95.5834 162.564 98.1942 155.524 100.161C153.564 100.704 151.55 101.201 149.49 101.644C147.436 102.08 145.409 102.442 143.423 102.724C142.53 102.872 141.644 102.986 140.765 103.087C129.57 104.429 119.725 103.536 113.564 100.812C109.933 99.2143 107.577 96.9861 106.96 94.2076C106.953 94.1874 106.94 94.1673 106.94 94.1472L106.859 93.7579L103.403 77.4895C105.255 86.2344 124.309 89.5901 145.94 84.9861C155.463 82.9593 163.893 79.7378 170.201 76.0264L171.846 83.778L173.732 92.6774L173.738 92.6707Z" fill="#00F14C" stroke="black" stroke-miterlimit="10"/>
<path d="M177.349 107.919C172.591 110.771 166.591 113.342 159.792 115.322C157.825 115.899 155.799 116.409 153.718 116.879C153.409 116.946 153.087 117.013 152.765 117.08C152.738 117.087 152.718 117.087 152.685 117.1C150.289 117.604 147.933 118.013 145.624 118.328C145.087 118.409 144.564 118.476 144.04 118.523C133.027 119.845 123.329 119 117.148 116.382C113.309 114.765 110.825 112.469 110.215 109.584L106.953 94.201C107.564 96.9728 109.919 99.2077 113.557 100.805C119.718 103.53 129.564 104.429 140.758 103.08C141.638 102.979 142.523 102.865 143.416 102.718C145.403 102.436 147.43 102.073 149.483 101.637C151.55 101.201 153.564 100.704 155.517 100.154C162.557 98.1875 168.799 95.5768 173.732 92.6641L175.201 99.5835L177.013 108.08C177.121 108.02 177.235 107.966 177.342 107.906L177.349 107.919Z" fill="#00F14C" stroke="black" stroke-miterlimit="10"/>
<path d="M145.792 74.2885C145.168 74.51 144.497 74.7046 143.785 74.8522C139.873 75.6778 136.416 74.9999 136.067 73.3422L135.49 70.6643L142.577 69.1543C142.899 69.0871 143.222 69.02 143.53 68.9529L144.604 68.7314L145.792 74.2885Z" fill="#00F14C" stroke="black" stroke-miterlimit="10"/>
<path d="M147.671 73.4492C147.577 73.5163 147.476 73.5633 147.383 73.617C147.268 73.6841 147.141 73.7445 147.013 73.7915C146.899 73.8519 146.772 73.9056 146.631 73.9593C146.711 73.919 146.785 73.8787 146.872 73.8452C146.933 73.8251 146.987 73.7982 147.06 73.7579C147.161 73.711 147.255 73.6707 147.362 73.6237C147.369 73.617 147.383 73.6036 147.389 73.6036C147.49 73.5566 147.577 73.5029 147.671 73.4559V73.4492Z" fill="#00F14C" stroke="black" stroke-miterlimit="10"/>
<path d="M150.181 71.0938C150.067 71.5031 149.785 71.8924 149.423 72.2347C149.792 71.8521 150.054 71.4763 150.181 71.0938Z" fill="#00F14C" stroke="black" stroke-miterlimit="10"/>
<path d="M171.148 75.4365C170.839 75.6312 170.524 75.8258 170.201 76.0204V75.9936C170.524 75.8057 170.832 75.6244 171.148 75.4365Z" fill="#00F14C" stroke="black" stroke-miterlimit="10"/>
<path d="M181.926 62.8791C181.92 63.0134 181.899 63.161 181.866 63.3154C181.846 63.4429 181.826 63.5704 181.799 63.6979C181.738 63.9932 181.665 64.2885 181.557 64.6107C181.557 64.6174 181.557 64.6308 181.55 64.6375C181.544 64.6778 181.53 64.7046 181.51 64.7449C181.49 64.8254 181.463 64.8926 181.43 64.9664C181.362 65.1543 181.295 65.3355 181.208 65.5301C181.181 65.5973 181.148 65.6778 181.114 65.7516C181.007 66.0067 180.873 66.2684 180.725 66.5301C180.718 66.557 180.698 66.5771 180.678 66.6107C180.678 66.6174 180.671 66.6375 180.658 66.6509L180.597 66.765C180.342 67.2013 180.054 67.6577 179.705 68.1275C179.577 68.302 179.45 68.4764 179.316 68.6509C179.181 68.8187 179.034 68.9932 178.879 69.1744C178.752 69.3221 178.624 69.4697 178.49 69.6241C178.289 69.8456 178.074 70.0738 177.846 70.3087C177.624 70.5301 177.389 70.7583 177.148 70.9932C176.805 71.3154 176.43 71.6442 176.027 71.9798C175.852 72.1275 175.678 72.2751 175.503 72.416C175.302 72.5838 175.094 72.7449 174.879 72.906C174.664 73.0738 174.443 73.2348 174.215 73.3959C173.993 73.5704 173.765 73.7382 173.524 73.8926C179.47 69.6442 182.665 64.9999 181.772 60.8389L181.946 61.6442C181.946 61.6442 181.953 61.6644 181.946 61.6711C181.946 61.6711 181.946 61.6778 181.946 61.6912C181.946 61.6912 181.953 61.7113 181.953 61.7181C181.98 62.0268 181.98 62.416 181.933 62.8791H181.926Z" fill="#00F14C" stroke="black" stroke-miterlimit="10"/>
<path d="M188.631 93.2688C188.591 93.0742 188.544 92.8729 188.503 92.638C188.497 92.6313 188.497 92.6178 188.497 92.5977C188.416 92.2353 188.329 91.8259 188.242 91.3896L188.544 92.7722L188.584 92.94C188.604 93.0474 188.631 93.1615 188.631 93.2688Z" fill="#00F14C" stroke="black" stroke-miterlimit="10"/>
<path d="M170.188 75.9928V76.0197C170.517 75.825 170.832 75.6304 171.141 75.4358C170.832 75.6237 170.517 75.8049 170.188 75.9928ZM149.423 72.2344C149.785 71.8922 150.067 71.5029 150.181 71.0935C150.054 71.476 149.792 71.8519 149.423 72.2344ZM147.389 73.5969C147.389 73.5969 147.369 73.6036 147.362 73.617C147.255 73.664 147.161 73.7042 147.06 73.7512C146.993 73.7915 146.933 73.8183 146.873 73.8385C146.785 73.8787 146.705 73.919 146.631 73.9526C146.765 73.9056 146.893 73.8452 147.013 73.7848C147.141 73.7378 147.268 73.6774 147.383 73.6103C147.477 73.5633 147.577 73.5096 147.671 73.4425C147.577 73.4895 147.483 73.5432 147.389 73.5901V73.5969ZM144.604 68.7311V68.7109L144.926 68.6237C144.47 68.7378 144 68.8452 143.537 68.9526C143.228 69.0197 142.906 69.0868 142.584 69.1539C140.168 69.6707 137.785 70.0868 135.45 70.4022L135.497 70.664L136.074 73.3418C136.423 74.9995 139.879 75.6774 143.792 74.8519C144.503 74.7042 145.175 74.5096 145.799 74.2881L144.611 68.7311H144.604ZM145.128 68.5767C146.658 68.2143 148.154 67.8183 149.604 67.3955L145.128 68.5767Z" fill="white" stroke="#001F2C" stroke-miterlimit="10"/>
<path d="M173.51 73.8923C173.51 73.8923 173.443 73.9392 173.409 73.9594C173.403 73.9661 173.383 73.9795 173.362 73.9862C173.356 73.9929 173.336 74.0131 173.315 74.0131C173.268 74.0533 173.208 74.0936 173.148 74.1272C173.101 74.1674 173.04 74.2077 172.98 74.2413C172.913 74.2882 172.846 74.3419 172.765 74.3755C172.577 74.5097 172.396 74.6305 172.201 74.758L172.027 74.8721C171.738 75.06 171.443 75.2413 171.141 75.4292C170.832 75.6171 170.517 75.7983 170.188 75.9862V76.0131C163.886 79.7245 155.456 82.946 145.933 84.9728C124.295 89.5768 105.242 86.2211 103.396 77.4762C103.121 76.2077 103.228 74.9057 103.678 73.5701C104.242 71.8788 105.362 70.154 106.96 68.4493C107.805 68.8117 108.711 69.1406 109.685 69.4225C116.161 71.3621 125.302 71.7782 135.436 70.3956L135.483 70.6574L136.06 73.3352C136.409 74.9929 139.866 75.6708 143.779 74.8453C144.49 74.6976 145.161 74.503 145.785 74.2815C145.785 74.2815 145.805 74.2748 145.832 74.2614C145.879 74.2413 145.966 74.2144 146.074 74.1741C146.141 74.1473 146.221 74.1137 146.309 74.0735C146.396 74.0332 146.503 73.9929 146.617 73.946C146.752 73.899 146.879 73.8386 147 73.7782C147.128 73.7312 147.255 73.6708 147.369 73.6037C147.45 73.5634 147.517 73.5231 147.591 73.4896C147.745 73.409 147.899 73.3218 148.047 73.2278C148.114 73.1876 148.174 73.1607 148.242 73.1137C148.309 73.0869 148.369 73.0332 148.436 72.9996C148.564 72.9191 148.678 72.8319 148.805 72.7446C148.953 72.6305 149.087 72.5231 149.215 72.4158C149.282 72.3553 149.349 72.3017 149.409 72.2278C149.772 71.8856 150.054 71.4963 150.168 71.0869C150.188 71.0265 150.208 70.9594 150.215 70.899C150.235 70.8117 150.242 70.7111 150.242 70.6238C150.242 70.5164 150.235 70.4225 150.215 70.3151C149.886 68.7983 149.718 67.9996 149.651 67.6372H149.644C149.617 67.4493 149.597 67.3822 149.597 67.3822C160.893 64.1003 170.007 59.1741 174.826 54.0332C178.651 55.6507 181.134 57.9392 181.745 60.8184C182.638 64.9862 179.45 69.6305 173.497 73.8721L173.51 73.8923Z" fill="white" stroke="#001F2C" stroke-miterlimit="10"/>
<path d="M145.792 74.2885C145.168 74.5099 144.497 74.7046 143.785 74.8522C139.873 75.6777 136.416 74.9999 136.067 73.3421L135.49 70.6643L135.443 70.4025C137.779 70.0938 140.168 69.671 142.577 69.1542C142.899 69.0871 143.222 69.02 143.53 68.9529C144 68.8455 144.463 68.7381 144.919 68.624L144.597 68.7113V68.7314L145.785 74.2885H145.792Z" fill="#96FF00" stroke="#001F2C" stroke-miterlimit="10"/>
<path d="M149.611 67.3955C148.161 67.8116 146.658 68.2143 145.134 68.5767L149.611 67.3955Z" fill="#96FF00" stroke="#001F2C" stroke-miterlimit="10"/>
<path d="M147.671 73.4492C147.577 73.5163 147.476 73.5633 147.383 73.617C147.268 73.6841 147.141 73.7445 147.013 73.7915C146.899 73.8519 146.772 73.9056 146.631 73.9593C146.711 73.919 146.785 73.8787 146.872 73.8452C146.933 73.8251 146.987 73.7982 147.06 73.7579C147.161 73.711 147.255 73.6707 147.362 73.6237C147.369 73.617 147.383 73.6036 147.389 73.6036C147.49 73.5566 147.577 73.5029 147.671 73.4559V73.4492Z" fill="#96FF00" stroke="#001F2C" stroke-miterlimit="10"/>
<path d="M162.101 26.8122C161.503 27.2015 160.873 27.5907 160.201 27.98C164.409 25.4699 167.658 22.7451 169.624 20.0068C169.544 20.1142 169.47 20.2283 169.383 20.3491C169.141 20.6981 168.866 21.0404 168.557 21.4028C168.275 21.725 167.98 22.0471 167.665 22.376C167.074 22.9867 166.389 23.631 165.597 24.2753C165.376 24.4699 165.128 24.6646 164.879 24.8592C164.215 25.376 163.497 25.8995 162.698 26.4297C162.51 26.5639 162.309 26.6914 162.101 26.8189V26.8122Z" fill="#00F14C" stroke="black" stroke-miterlimit="10"/>
<path d="M171.732 14.3158C171.732 13.8393 171.685 13.3829 171.584 12.9131C171.584 12.9131 171.584 12.9198 171.591 12.9332C171.591 12.9601 171.597 13.0138 171.617 13.0876C171.617 13.0876 171.62 13.0943 171.624 13.1077L171.644 13.2218C171.644 13.2218 171.651 13.2419 171.651 13.2487C171.651 13.2755 171.658 13.3091 171.671 13.3493C171.671 13.356 171.671 13.3762 171.678 13.3963V13.4366C171.718 13.6581 171.738 13.9534 171.718 14.3158H171.732Z" fill="#00F14C" stroke="black" stroke-miterlimit="10"/>
<path d="M164.289 43.356C163.987 43.5506 163.678 43.7386 163.356 43.9198L163.134 42.8594C163.524 43.0272 163.913 43.1882 164.295 43.356H164.289Z" fill="#00F14C" stroke="black" stroke-miterlimit="10"/>
<path d="M163.356 43.9196C157.054 47.6377 148.624 50.8592 139.121 52.8861C131.175 54.5706 123.571 55.1814 117.047 54.8525C115.275 54.7653 113.591 54.6109 111.993 54.376C103.443 53.1679 97.5638 50.0404 96.5705 45.3827L93.2148 29.5639C94.7518 36.7988 108.074 40.3492 124.886 38.7384C128.383 38.4163 132.034 37.8592 135.758 37.0606C142.148 35.7049 148.034 33.8055 153.141 31.5773C155.624 30.4968 157.92 29.329 159.993 28.1143L161.121 33.4431L163.128 42.8659L163.349 43.9263L163.356 43.9196Z" fill="#00F14C" stroke="black" stroke-miterlimit="10"/>
<path d="M174.832 54.0465C170.013 59.1874 160.899 64.1136 149.604 67.3955L145.127 68.5767L144.926 68.6236C144.47 68.7377 144 68.8451 143.537 68.9525C143.228 69.0196 142.906 69.0867 142.584 69.1538C140.168 69.6706 137.785 70.0867 135.45 70.4022C125.315 71.7847 116.174 71.3686 109.698 69.429C108.725 69.1471 107.819 68.8183 106.973 68.4559C104.966 67.6169 103.329 66.5834 102.141 65.382C101.054 64.2814 100.329 63.0465 100.04 61.6639L96.5839 45.382C97.5772 50.0465 103.456 53.174 112.007 54.3753C113.604 54.6102 115.289 54.7646 117.06 54.8518C123.584 55.1807 131.188 54.57 139.134 52.8854C148.638 50.8585 157.067 47.6371 163.369 43.9189L165.013 51.6706L166.805 60.08C169.228 58.8451 172.362 56.5968 174.799 54.0263C174.819 54.0263 174.825 54.033 174.846 54.0465H174.832Z" fill="#00F14C" stroke="black" stroke-miterlimit="10"/>
<path d="M149.611 67.3955C148.161 67.8116 146.658 68.2143 145.134 68.5767L149.611 67.3955Z" fill="#00F14C" stroke="black" stroke-miterlimit="10"/>
<path d="M176.98 51.2822C176.852 51.497 176.705 51.7185 176.55 51.9332C176.06 52.6312 175.49 53.3426 174.839 54.0473C174.819 54.0406 174.812 54.0272 174.792 54.0272C175.423 53.3426 176.027 52.6379 176.544 51.9265C176.698 51.7118 176.846 51.497 176.98 51.2822Z" fill="#00F14C" stroke="black" stroke-miterlimit="10"/>
<path d="M178.503 45.7647C178.476 45.6372 178.443 45.4828 178.416 45.3284C178.248 44.5499 178.027 43.4425 177.745 42.0935C177.705 41.872 177.658 41.6371 177.597 41.4022C177.49 40.8586 177.362 40.2747 177.235 39.6573C177.154 39.3083 177.087 38.9459 177.013 38.5835C176.758 37.3955 176.497 36.1271 176.221 34.8184L178.396 45.013C178.416 45.1271 178.443 45.2345 178.443 45.3553C178.463 45.3553 178.463 45.362 178.45 45.3754C178.476 45.5029 178.49 45.6372 178.497 45.7647H178.503Z" fill="#00F14C" stroke="black" stroke-miterlimit="10"/>
<path d="M171.732 14.3153V14.4429C171.732 14.6845 171.711 14.9596 171.664 15.2482C171.644 15.3757 171.624 15.51 171.597 15.6442V15.6643L171.591 15.671C171.591 15.671 171.593 15.6733 171.597 15.6778C171.597 15.6778 171.591 15.6845 171.591 15.6979C171.57 15.7784 171.55 15.8523 171.53 15.9328C171.523 15.9798 171.51 16.0402 171.49 16.1006C171.47 16.1878 171.443 16.2885 171.423 16.3825C171.43 16.3892 171.43 16.4026 171.423 16.4026C171.416 16.4093 171.403 16.4227 171.403 16.4294C171.362 16.5368 171.336 16.6442 171.295 16.7583C171.295 16.7784 171.289 16.7851 171.289 16.7986C171.262 16.8992 171.228 16.9932 171.195 17.0939C171.188 17.1207 171.175 17.1543 171.168 17.1744C171.121 17.3086 171.067 17.4496 171.013 17.5838C170.953 17.7314 170.886 17.8791 170.812 18.0335C170.745 18.1878 170.664 18.3422 170.577 18.5033C170.53 18.6106 170.47 18.7046 170.409 18.812C170.295 19.0066 170.175 19.2012 170.047 19.3959C169.987 19.4965 169.919 19.5972 169.846 19.7046C169.779 19.8053 169.711 19.8992 169.644 20.0066C169.577 20.114 169.49 20.2281 169.403 20.3489C169.362 20.4093 169.322 20.463 169.268 20.5234C168.644 21.3221 167.913 22.1207 167.081 22.9059C166.966 23.02 166.839 23.1408 166.711 23.2482C166.597 23.3623 166.477 23.4697 166.362 23.5704C166.168 23.7449 165.973 23.9127 165.779 24.0737C165.584 24.2482 165.383 24.416 165.175 24.5704C164.973 24.7382 164.758 24.8992 164.544 25.067C164.329 25.2348 164.107 25.3959 163.879 25.5637C163.658 25.7314 163.43 25.8925 163.195 26.0536C163.107 26.1207 163.02 26.1811 162.933 26.2415C162.745 26.3757 162.55 26.5033 162.349 26.6375C161.678 27.0939 160.966 27.5435 160.228 27.9798C160.161 28.0268 160.094 28.067 160.027 28.1073C157.953 29.3221 155.658 30.4898 153.175 31.5704C148.074 33.7986 142.181 35.6979 135.792 37.0536C132.06 37.8523 128.409 38.4093 124.919 38.7314C108.107 40.3489 94.7853 36.7919 93.2483 29.557C91.3893 20.8254 107.436 10.0066 129.067 5.4093C150.711 0.811985 169.758 4.1744 171.617 12.9059C171.718 13.3757 171.765 13.8321 171.765 14.3086L171.732 14.3153Z" fill="#00F14C" stroke="black" stroke-miterlimit="10"/>
<path d="M171.483 16.1074C171.43 16.3289 171.362 16.5504 171.289 16.7651C171.362 16.537 171.423 16.3155 171.483 16.1074Z" fill="#00F14C" stroke="black" stroke-miterlimit="10"/>
<path d="M171.295 16.7715C171.295 16.7715 171.295 16.7983 171.282 16.805C171.201 17.0601 171.114 17.3084 171 17.5836C171.121 17.3084 171.201 17.0399 171.295 16.7715Z" fill="#00F14C" stroke="black" stroke-miterlimit="10"/>
<path d="M171.664 15.248C171.624 15.5165 171.564 15.8051 171.49 16.1071C171.557 15.8185 171.631 15.5299 171.664 15.248Z" fill="#00F14C" stroke="black" stroke-miterlimit="10"/>
<path d="M195.779 127.382C195.698 127.013 195.624 126.63 195.544 126.261L195.651 126.241C195.732 126.61 195.779 127 195.779 127.382Z" fill="#00F14C" stroke="black" stroke-miterlimit="10"/>
<path d="M150.262 70.6372C150.262 70.7245 150.255 70.8252 150.235 70.9124C150.228 70.9728 150.208 71.0399 150.188 71.1003C150.06 71.4829 149.799 71.8587 149.43 72.2413C149.369 72.3084 149.302 72.3688 149.235 72.4292C149.107 72.5366 148.973 72.644 148.825 72.7581C148.698 72.8453 148.584 72.9325 148.456 73.0131C148.389 73.0534 148.329 73.1003 148.262 73.1272C148.195 73.1742 148.134 73.2077 148.067 73.2413C147.933 73.3218 147.805 73.3889 147.678 73.456C147.584 73.503 147.49 73.5567 147.396 73.6037C147.389 73.6037 147.376 73.6104 147.369 73.6238C147.262 73.6708 147.168 73.7111 147.067 73.758C147 73.7983 146.94 73.8252 146.879 73.8453C146.792 73.8856 146.711 73.9258 146.638 73.9594C146.523 74.0064 146.416 74.0466 146.329 74.0869C146.242 74.1272 146.161 74.154 146.094 74.1876C145.987 74.2278 145.899 74.2547 145.852 74.2748C145.825 74.2815 145.805 74.295 145.805 74.295L144.617 68.7379V68.7178L144.94 68.6305L145.141 68.5836C146.671 68.2211 148.168 67.8252 149.617 67.4023C149.617 67.4023 149.638 67.4695 149.664 67.6574H149.671C149.738 68.0198 149.906 68.8185 150.235 70.3352C150.255 70.4426 150.262 70.5366 150.262 70.644V70.6372Z" fill="black" stroke="black" stroke-miterlimit="10"/>
<path d="M150.181 71.0938C150.067 71.5031 149.785 71.8924 149.423 72.2347C149.792 71.8521 150.054 71.4763 150.181 71.0938Z" fill="black" stroke="black" stroke-miterlimit="10"/>
<path d="M149.611 67.3955C148.161 67.8116 146.658 68.2143 145.134 68.5767L149.611 67.3955Z" fill="black" stroke="black" stroke-miterlimit="10"/>
<path d="M156.007 122.343L155.054 117.866L154.819 116.765L156.96 116.202L153.718 116.886C155.799 116.416 157.826 115.9 159.792 115.329L159.812 115.457C159.812 115.457 159.819 115.497 159.839 115.584C159.846 115.631 159.859 115.698 159.886 115.785L159.946 116.067C159.987 116.262 160.034 116.497 160.101 116.799C160.181 117.208 160.295 117.732 160.43 118.383C160.919 120.651 156 122.343 156 122.343H156.007Z" fill="black" stroke="black" stroke-miterlimit="10"/>
<path d="M177.228 50.8719C177.148 51.0061 177.06 51.1471 176.973 51.2813C176.839 51.4961 176.691 51.7108 176.537 51.9256C176.02 52.637 175.416 53.3484 174.785 54.0263C172.349 56.5967 169.215 58.8451 166.792 60.08L165 51.6706L163.356 43.9189C163.678 43.731 163.987 43.5498 164.289 43.3551C163.906 43.1873 163.517 43.0263 163.128 42.8585L161.121 33.4357L159.993 28.1068C160.06 28.0665 160.128 28.0263 160.195 27.9793C160.523 27.7847 160.859 27.59 161.168 27.3954C161.208 27.3753 161.248 27.3484 161.282 27.3149C161.557 27.1471 161.826 26.986 162.087 26.8115C162.289 26.684 162.483 26.5565 162.685 26.4222C163.483 25.8988 164.201 25.3686 164.866 24.8518C165.121 24.6571 165.362 24.4625 165.584 24.2679C166.376 23.6236 167.054 22.986 167.651 22.3686C167.98 22.0397 168.275 21.7041 168.544 21.3954C168.805 21.0934 169.04 20.8115 169.235 20.5162C169.295 20.4558 169.329 20.4021 169.369 20.3417C169.456 20.2276 169.544 20.1068 169.611 19.9994C169.698 19.892 169.765 19.7981 169.812 19.6974C169.893 19.59 169.96 19.4827 170.013 19.3887C170.148 19.1941 170.268 18.9994 170.376 18.8048C170.436 18.6974 170.49 18.6035 170.544 18.4961C170.631 18.3417 170.711 18.1873 170.779 18.0263C170.859 17.8719 170.926 17.7243 170.98 17.5766C171.04 17.4424 171.087 17.3014 171.134 17.1806C171.134 17.1806 171.154 17.1202 171.161 17.0934C171.255 16.8719 171.336 16.6236 171.396 16.4021C171.403 16.4021 171.403 16.3954 171.396 16.382C171.477 16.1605 171.523 15.9457 171.564 15.7108C171.564 15.7041 171.564 15.6907 171.57 15.684C171.57 15.684 171.568 15.6818 171.564 15.6773C171.564 15.6773 171.57 15.6773 171.57 15.6706V15.6504C171.597 15.5162 171.617 15.3753 171.638 15.2545C171.685 14.9592 171.705 14.6907 171.705 14.4491V14.3216C171.725 13.9592 171.705 13.6706 171.664 13.4424L171.691 13.5766C171.839 14.241 172.081 15.3753 172.389 16.8451L172.604 17.8451L172.839 18.9323C173.356 21.3887 173.987 24.3686 174.638 27.4491C174.725 27.8652 174.812 28.2947 174.913 28.7243C174.913 28.7712 174.933 28.8249 174.94 28.8786C175.114 29.7175 175.302 30.5632 175.477 31.4021C175.651 32.241 175.825 33.08 176 33.892C176.067 34.2008 176.128 34.5028 176.195 34.8048C176.47 36.1202 176.732 37.382 176.987 38.5699C177.067 38.9323 177.134 39.288 177.208 39.6437C177.336 40.2545 177.463 40.8384 177.57 41.3887C177.617 41.6303 177.671 41.8585 177.718 42.08C178 43.4222 178.221 44.5363 178.389 45.3149C178.416 45.4692 178.45 45.6236 178.477 45.7511C178.477 45.7578 178.483 45.778 178.483 45.7914C178.638 47.4357 178.181 49.1538 177.195 50.8652L177.228 50.8719Z" fill="black" stroke="black" stroke-linecap="round" stroke-linejoin="round"/>
<path d="M164.289 43.356C163.987 43.5506 163.678 43.7386 163.356 43.9198L163.134 42.8594C163.524 43.0272 163.913 43.1882 164.295 43.356H164.289Z" fill="black" stroke="black" stroke-linecap="round" stroke-linejoin="round"/>
<path d="M171.295 16.7715C171.295 16.7715 171.295 16.7983 171.282 16.805C171.201 17.0601 171.114 17.3084 171 17.5836C171.121 17.3084 171.201 17.0399 171.295 16.7715Z" fill="black" stroke="black" stroke-linecap="round" stroke-linejoin="round"/>
<path d="M171.483 16.1074C171.43 16.3289 171.362 16.5504 171.289 16.7651C171.362 16.537 171.423 16.3155 171.483 16.1074Z" fill="black" stroke="black" stroke-linecap="round" stroke-linejoin="round"/>
<path d="M171.664 15.248C171.624 15.5165 171.564 15.8051 171.49 16.1071C171.557 15.8185 171.631 15.5299 171.664 15.248Z" fill="black" stroke="black" stroke-linecap="round" stroke-linejoin="round"/>
<path d="M171.624 13.087C171.604 13.0064 171.597 12.9595 171.597 12.9326C171.604 12.9595 171.617 13.0199 171.638 13.1071C171.638 13.1071 171.635 13.1004 171.631 13.087H171.624Z" fill="black" stroke="black" stroke-linecap="round" stroke-linejoin="round"/>
<path d="M171.691 13.3956C171.698 13.4426 171.711 13.503 171.718 13.5701L171.691 13.4359C171.691 13.4359 171.685 13.3755 171.685 13.3486C171.685 13.3553 171.685 13.3755 171.691 13.3956Z" fill="black" stroke="black" stroke-linecap="round" stroke-linejoin="round"/>
<path d="M177.228 50.8727C178.215 49.1612 178.671 47.4431 178.517 45.7988C178.839 47.3827 178.295 49.1411 177.228 50.8727Z" fill="black" stroke="black" stroke-linecap="round" stroke-linejoin="round"/>
<path d="M185.007 101.973C183.107 104 180.55 105.987 177.45 107.866C177.423 107.886 177.383 107.906 177.342 107.926C177.235 107.987 177.121 108.04 177.014 108.101L175.201 99.6041L173.732 92.6846L171.846 83.7853L170.201 76.0336C170.524 75.839 170.832 75.6443 171.148 75.4497C171.45 75.2618 171.745 75.0806 172.034 74.8926L172.208 74.7786C172.403 74.651 172.591 74.5369 172.772 74.396C172.852 74.3557 172.92 74.3088 172.987 74.2618C173.047 74.2215 173.101 74.1812 173.154 74.1477C173.215 74.1074 173.269 74.0671 173.322 74.0336C173.342 74.0336 173.362 74.0134 173.369 74.0067C173.389 74 173.409 73.9866 173.416 73.9799C173.443 73.9598 173.483 73.9396 173.517 73.9128C173.758 73.7584 173.987 73.5906 174.208 73.4161C174.43 73.2618 174.658 73.094 174.873 72.9262C175.087 72.7718 175.289 72.6041 175.497 72.4363C175.685 72.2886 175.859 72.1544 176.02 72C176.416 71.6712 176.799 71.3356 177.141 71.0134C177.383 70.7786 177.618 70.5571 177.839 70.3289C178.06 70.094 178.275 69.8725 178.483 69.6443C178.618 69.49 178.758 69.3423 178.873 69.1947C179.027 69.0067 179.175 68.8322 179.309 68.6712C179.443 68.4832 179.584 68.3222 179.698 68.1477C180.047 67.6779 180.342 67.2215 180.591 66.7853L180.651 66.6712L180.671 66.651V66.6309C180.671 66.6309 180.711 66.5839 180.718 66.5504C180.866 66.2886 181 66.0269 181.107 65.7718C181.148 65.6913 181.175 65.6175 181.201 65.5504C181.289 65.3557 181.356 65.1678 181.423 64.9866C181.45 64.9061 181.483 64.839 181.503 64.7651C181.524 64.7249 181.53 64.698 181.544 64.6577C181.55 64.651 181.55 64.6376 181.55 64.6309C181.658 64.3088 181.738 64.0067 181.792 63.7182C181.819 63.5906 181.839 63.4631 181.859 63.3356C181.886 63.1812 181.906 63.0336 181.92 62.8994C181.967 62.443 181.967 62.0537 181.94 61.7383L185.295 77.5101C185.295 77.5101 185.302 77.5369 185.302 77.5504L185.477 78.3423L185.779 79.7718C186.128 81.4363 186.477 83.0739 186.799 84.6108C186.946 85.2752 187.081 85.9262 187.208 86.5504C187.557 88.2081 187.873 89.7047 188.134 90.9531C188.161 91.1074 188.195 91.2618 188.235 91.4094C188.322 91.8457 188.409 92.2551 188.49 92.6175C188.49 92.6376 188.49 92.6443 188.497 92.6577C188.537 92.8926 188.584 93.094 188.624 93.2886C188.624 93.2953 188.624 93.3155 188.631 93.3356C189.06 96.1074 187.725 99.0806 185 101.993L185.007 101.973Z" fill="black"/>
<path d="M171.148 75.4365C170.839 75.6312 170.524 75.8258 170.201 76.0204V75.9936C170.524 75.8057 170.832 75.6244 171.148 75.4365Z" fill="black"/>
<path d="M181.873 61.2345C181.846 61.1204 181.826 61.0332 181.826 60.9795C181.832 61.0265 181.852 61.1137 181.873 61.2345Z" fill="black"/>
<path d="M185.49 78.3223L185.315 77.5304C185.315 77.5304 185.309 77.5035 185.309 77.4901L181.953 61.7183C181.953 61.7183 181.953 61.6981 181.946 61.6914C181.946 61.6914 181.946 61.6847 181.946 61.6713C181.946 61.6713 181.953 61.6512 181.946 61.6445C181.946 61.5639 181.94 61.4968 181.926 61.4297C182.342 63.4096 183.94 70.9398 185.497 78.3223H185.49Z" fill="black"/>
<path d="M185.04 101.98C182.752 104.423 179.832 106.584 177.456 107.859C180.55 105.98 183.114 103.993 185.013 101.966C187.738 99.0536 189.074 96.0871 188.644 93.3086C188.685 93.4831 188.711 93.6509 188.745 93.7985C189.262 96.3623 187.53 99.3354 185.047 101.98H185.04Z" fill="black"/>
<path d="M192.087 109.986H192.081C192.121 111.074 191.886 112.188 191.416 113.308C191.973 111.886 192.067 110.745 192.027 110.006C192.027 109.812 192.007 109.644 191.987 109.51C192.013 109.617 192.047 109.745 192.067 109.892C192.074 109.899 192.074 109.912 192.074 109.919V109.939C192.074 109.939 192.081 109.966 192.081 109.986H192.087Z" fill="black"/>
<path d="M107.899 167.295C106 167.678 104.765 167.745 104.168 167.516C103.57 167.282 103.134 166.852 102.872 166.235L101.181 159.537C100.638 157.362 99.9463 155.758 99.0806 154.725C98.9128 154.523 98.7316 154.329 98.5369 154.141C98.443 154.053 98.3423 153.966 98.2349 153.879C97.7181 153.429 97.1275 153.053 96.443 152.731C96.2483 152.637 96.047 152.543 95.8389 152.456H95.8322L88.7249 153.865L89.2282 156.456C90.9732 156.174 92.2148 156.342 92.9866 156.953C93.745 157.563 94.3289 158.295 94.7181 159.141C95.1141 159.98 95.6242 161.986 96.2483 165.147C96.8255 168.02 97.5302 170.033 98.3893 171.201C99.2551 172.369 100.416 173.1 101.873 173.402C103.336 173.704 105.309 173.604 107.792 173.12L109 172.879L107.899 167.288V167.295Z" fill="#00ED64"/>
<path d="M103.758 173.912C103.034 173.912 102.376 173.852 101.805 173.731C100.268 173.415 99.0268 172.63 98.1208 171.402C97.2282 170.187 96.5101 168.16 95.9195 165.214C95.302 162.073 94.7919 160.08 94.4161 159.288C94.0537 158.496 93.5034 157.798 92.7718 157.214C92.3087 156.845 91.6242 156.657 90.7248 156.657C90.2953 156.657 89.8054 156.697 89.2752 156.785L88.953 156.838L88.3221 153.603L95.7919 152.12H95.906L95.9664 152.147C96.1745 152.234 96.3893 152.328 96.5906 152.429C97.302 152.764 97.9127 153.154 98.4497 153.623C98.557 153.711 98.6577 153.798 98.7584 153.892C98.9866 154.107 99.1745 154.308 99.3423 154.516C100.228 155.576 100.94 157.194 101.51 159.456L103.201 166.154C103.409 166.637 103.785 167.006 104.295 167.207C104.477 167.274 104.758 167.308 105.121 167.308C105.772 167.308 106.685 167.194 107.832 166.966L108.161 166.899L109.389 173.147L107.852 173.456C106.295 173.764 104.913 173.919 103.752 173.919L103.758 173.912Z" fill="#FFEEA9"/>
<path d="M95.8322 152.456C96.0335 152.543 96.2416 152.63 96.4362 152.731C97.1208 153.053 97.7114 153.429 98.2282 153.878C98.3355 153.966 98.4295 154.053 98.5302 154.14C98.7248 154.328 98.9127 154.523 99.0738 154.724C99.9396 155.758 100.631 157.362 101.174 159.536L102.866 166.234C103.127 166.858 103.564 167.288 104.161 167.523C104.389 167.61 104.705 167.65 105.114 167.65C105.785 167.65 106.711 167.536 107.893 167.301L108.993 172.892L107.785 173.133C106.248 173.435 104.899 173.59 103.752 173.59C103.047 173.59 102.416 173.536 101.866 173.415C100.403 173.113 99.2483 172.382 98.3825 171.214C97.5235 170.046 96.8121 168.033 96.2416 165.16C95.6174 161.992 95.1141 159.992 94.7114 159.154C94.3221 158.308 93.7382 157.576 92.9798 156.966C92.4563 156.543 91.7047 156.335 90.7248 156.335C90.2751 156.335 89.7718 156.382 89.2214 156.469L88.7181 153.878L95.8255 152.469H95.8322M95.9731 151.798H95.7584L95.6912 151.811L88.5839 153.221L87.9261 153.348L88.0537 154.006L88.557 156.597L88.6845 157.234L89.3288 157.127C89.8389 157.046 90.3087 156.999 90.7248 156.999C91.5436 156.999 92.161 157.16 92.5637 157.482C93.2483 158.033 93.7651 158.69 94.1073 159.429C94.4765 160.207 94.9731 162.174 95.5906 165.288C96.1879 168.288 96.9261 170.355 97.8523 171.61C98.8188 172.912 100.121 173.737 101.745 174.073C102.342 174.194 103.02 174.261 103.765 174.261C104.946 174.261 106.349 174.107 107.926 173.791L109.134 173.55L109.792 173.415L109.664 172.758L108.564 167.167L108.436 166.509L107.778 166.643C106.658 166.865 105.765 166.979 105.134 166.979C104.705 166.979 104.503 166.925 104.416 166.892C104.007 166.731 103.711 166.442 103.523 166.019L101.846 159.375C101.262 157.06 100.53 155.402 99.604 154.301C99.4362 154.093 99.2416 153.885 99.0067 153.664C98.8859 153.556 98.7785 153.462 98.6644 153.368C98.1141 152.892 97.4765 152.482 96.7315 152.133C96.5369 152.039 96.3221 151.946 96.1074 151.852L95.9798 151.798H95.9731Z" fill="black"/>
<path d="M87.7249 150.603L88.047 150.536C89.6309 150.207 90.7383 149.503 91.3356 148.442C91.953 147.368 91.9329 145.12 91.2685 141.771C91.2014 141.422 91.1275 141.087 91.0738 140.764C90.6712 138.637 90.443 136.986 90.396 135.845C90.3423 134.764 90.5101 133.764 90.8926 132.885C90.9799 132.67 91.0873 132.442 91.2215 132.207C91.2953 132.087 91.3624 131.972 91.4363 131.865C92.0403 130.966 92.8591 130.221 93.8725 129.657C95.0134 129.019 96.6913 128.483 98.8591 128.06L100.423 127.751L101.651 133.966L101.322 134.033C98.5034 134.597 97.8054 135.12 97.6376 135.382C97.3423 135.852 97.302 136.738 97.5168 138.006C97.6846 138.972 97.8255 139.858 97.953 140.65C98.3222 142.925 98.5369 144.509 98.5973 145.375C98.6712 146.59 98.5369 147.744 98.1812 148.905C97.8658 149.979 97.1678 151.06 96.0537 152.201L96.953 152.576L88.4363 154.268L87.7114 150.617L87.7249 150.603Z" fill="#FFEEA9"/>
<path d="M100.168 128.141L100.94 132.033L101.074 132.724L101.268 133.698C99.0201 134.147 97.7114 134.644 97.3624 135.194C97.0134 135.751 96.9664 136.704 97.1946 138.06C97.3624 139.026 97.5034 139.912 97.6309 140.698C98 142.973 98.2148 144.543 98.2752 145.389C98.3423 146.537 98.2148 147.664 97.8792 148.798C97.5503 149.919 96.7517 151.087 95.4765 152.315C95.5906 152.355 95.7114 152.402 95.8255 152.449L88.7181 153.859L88.1208 150.859C89.8054 150.51 90.9866 149.758 91.6376 148.597C92.302 147.449 92.2886 145.141 91.6107 141.691C91.5436 141.349 91.4765 141.006 91.4161 140.691C91.0134 138.57 90.7919 136.939 90.745 135.812C90.698 134.778 90.8523 133.832 91.2148 133C91.302 132.778 91.4094 132.563 91.5235 132.355C91.5906 132.241 91.6577 132.134 91.7248 132.026C92.2886 131.181 93.0604 130.476 94.0403 129.933C95.1409 129.322 96.7785 128.792 98.9262 128.375L100.161 128.134M100.691 127.349L100.034 127.476L98.7987 127.718C96.5973 128.147 94.8859 128.698 93.7114 129.349C92.651 129.939 91.7919 130.718 91.1611 131.657C91.0738 131.792 91.0067 131.906 90.9329 132.02C90.7852 132.275 90.6711 132.516 90.5772 132.758C90.1879 133.664 90.0134 134.711 90.0671 135.845C90.1141 137 90.349 138.671 90.7517 140.818C90.8121 141.141 90.8792 141.483 90.9463 141.832C91.7517 145.906 91.4497 147.584 91.0537 148.268C90.4966 149.261 89.4899 149.892 87.9866 150.208L87.3356 150.342L87.4631 150.993L88.0604 153.993L88.1879 154.651L88.8456 154.523L95.953 153.114L98.1141 152.684L96.651 152.073C97.6107 151.02 98.2215 150.006 98.5235 148.993C98.8859 147.798 99.0201 146.61 98.9463 145.355C98.8859 144.483 98.6644 142.879 98.2953 140.597C98.1678 139.805 98.0201 138.919 97.8591 137.953C97.5906 136.396 97.7852 135.785 97.9329 135.563C97.9933 135.469 98.4497 134.953 101.403 134.362L102.06 134.228L101.926 133.57L101.732 132.597L101.597 131.906L100.826 128.013L100.698 127.355L100.691 127.349Z" fill="black"/>
<path d="M109 172.879L107.792 173.12C105.309 173.61 103.336 173.704 101.873 173.402C100.409 173.1 99.2551 172.369 98.3893 171.201C97.5302 170.033 96.8188 168.02 96.2483 165.147C95.6242 161.986 95.1208 159.98 94.7181 159.141C94.3289 158.295 93.745 157.563 92.9866 156.953C92.2148 156.342 90.9732 156.174 89.2282 156.456L88.7249 153.865L95.8322 152.456H95.8389C96.0403 152.543 96.2483 152.631 96.443 152.731C97.1275 153.053 97.7181 153.429 98.2349 153.879C98.3423 153.966 98.4363 154.053 98.5369 154.141C98.7316 154.329 98.9195 154.523 99.0806 154.725C99.9463 155.758 100.638 157.362 101.181 159.537L102.872 166.235C103.134 166.859 103.57 167.288 104.168 167.516C104.765 167.738 106 167.671 107.899 167.295L109 172.886V172.879Z" fill="black" stroke="black" stroke-miterlimit="10"/>
<path d="M198.456 139.429L199.02 142.067C200.873 150.812 184.832 161.617 163.201 166.215C141.557 170.812 122.51 167.449 120.651 158.718L119.651 154.013L119.45 153.027C121.309 161.758 140.356 165.121 162 160.523C171.456 158.517 179.846 155.315 186.134 151.624L183.98 141.49L183.812 140.698L181.973 132.033L181.383 129.268L180.282 124.067C187.02 120.194 189.96 116.55 191.195 113.825C191.215 113.778 191.235 113.725 191.255 113.678C191.315 113.55 191.369 113.423 191.423 113.295C191.893 112.174 192.121 111.067 192.087 109.986H192.094C192.631 112.49 194.101 119.423 195.55 126.255C195.631 126.624 195.705 127.007 195.785 127.376C196.067 128.678 196.342 129.973 196.604 131.221L196.718 131.194C210.591 128.08 221.275 116.523 223.094 102.201C223.282 103.611 223.369 105.054 223.369 106.517C223.369 122.181 212.832 135.382 198.463 139.429H198.456Z" fill="black" stroke="black" stroke-miterlimit="10"/>
</svg>
