<svg height="60" viewBox="0 0 60 60" width="60" xmlns="http://www.w3.org/2000/svg"><g fill="none" fill-rule="nonzero"><g fill="#116149"><path d="m47.5 11.061c0-4.74883892-10.1568533-9.06-22.75-9.06s-22.75 4.31116108-22.75 9.06c0 4.728779 10.139174 9 22.75 9s22.75-4.271221 22.75-9zm2 0c0 6.3061287-11.142476 11-24.75 11s-24.75-4.6938713-24.75-11c0-6.32204664 11.1623519-11.06 24.75-11.06s24.75 4.73795336 24.75 11.06z"/><path d="m24.75 30.061c.5522847 0 1 .4477153 1 1s-.4477153 1-1 1c-13.607524 0-24.75-4.6938713-24.75-11 0-.5522847.44771525-1 1-1s1 .4477153 1 1c0 4.728779 10.139174 9 22.75 9z"/><path d="m21.0669135 41.1862412c.5510469.0369553.9678006.5136253.9308453 1.0646723-.0369553.5510469-.5136253.9678006-1.0646723.9308453-11.92651377-.7998368-20.9330865-5.200624-20.9330865-10.8702588 0-.5522847.44771525-1 1-1s1 .4477153 1 1c0 4.1852556 8.0909506 8.1386519 19.0669135 8.8747412z"/><path d="m22.2941362 52.4789745c.5517465.0243757.9792651.4914151.9548893 1.0431617-.0243757.5517465-.4914151.9792651-1.0431617.9548893-12.52605115-.5533913-22.2058638-5.0322051-22.2058638-10.9165255v-32.56c0-.5522847.44771525-1 1-1s1 .4477153 1 1v32.56c0 4.3654767 8.7366046 8.4078716 20.2941362 8.9184745z"/><path d="m47.5 11c0-.5522847.4477153-1 1-1s1 .4477153 1 1v11.25c0 .5522847-.4477153 1-1 1s-1-.4477153-1-1z"/></g><g fill="#16cc62"><path d="m57.75 43.75c0-7.7318261-6.2688955-14-14-14-7.734326 0-14 6.2663954-14 14 0 7.7319939 6.266563 14 14 14 7.7302153 0 14-6.2697847 14-14zm2 0c0 8.8347847-7.1652153 16-16 16-8.8381096 0-16-7.1635397-16-16 0-8.8381225 7.1610529-16 16-16 8.8356224 0 16 7.1635528 16 16z"/><path d="m37.5 44.75c-.5522847 0-1-.4477153-1-1s.4477153-1 1-1h12.5c.5522847 0 1 .4477153 1 1s-.4477153 1-1 1z"/><path d="m44.75 50c0 .5522847-.4477153 1-1 1s-1-.4477153-1-1v-12.5c0-.5522847.4477153-1 1-1s1 .4477153 1 1z"/></g></g></svg>